<?xml version="1.0" encoding="UTF-8"?>
<svg version="1.1" xmlns="http://www.w3.org/2000/svg" width="1024" height="1024">
<path d="M0 0 C33.48887994 32.35044776 51.79045527 78.09158103 53.0703125 124.2890625 C53.47044621 174.65482946 33.4026473 220.04785522 -1.3046875 255.9765625 C-35.0327314 288.93036149 -81.71076208 306.72826392 -128.6640625 306.28515625 C-178.02108148 305.04436132 -222.92156656 284.35436763 -257.27734375 249.19140625 C-289.63353804 213.78543813 -306.69614993 166.88451382 -304.7421875 118.9765625 C-302.03488632 70.68277159 -280.63618897 25.91990301 -244.9296875 -6.7109375 C-178.6170414 -63.89082412 -79.09776534 -66.58888544 0 0 Z " fill="#EC4798" transform="translate(637.9296875,384.7109375)"/>
<path d="M0 0 C11.62427829 -0.65281273 20.52375959 3.92910302 29.15625 11.19140625 C32.73547894 14.48793492 36.18500494 17.90617029 39.62963867 21.3425293 C40.64547594 22.34908533 41.66169717 23.35525399 42.67826843 24.36106873 C45.41445235 27.07125211 48.14415486 29.78786791 50.87183166 32.50661063 C52.58148611 34.21036729 54.29229311 35.91295851 56.00344276 37.61521339 C61.37298328 42.95747808 66.7385574 48.3036791 72.09835356 53.65572041 C78.2567267 59.80513009 84.4279647 65.94123093 90.61073893 72.06610459 C95.41061403 76.82260202 100.19875667 81.59070755 104.97832471 86.36760932 C107.82393323 89.21113337 110.67407301 92.04970671 113.53658104 94.87622643 C116.22998355 97.53641281 118.90838095 100.21087497 121.57649422 102.89641762 C123.0108916 104.33306296 124.4600175 105.75495702 125.909729 107.17614746 C135.22744046 116.61310733 140.47959864 126.48229068 140.54125977 139.7890625 C140.34329466 149.34275146 136.79346381 157.5209539 130.17578125 164.44140625 C121.29942398 172.13310462 112.33768234 174.70939071 100.72265625 174.5 C86.05894827 173.2311797 76.65268749 162.98906057 66.75878906 153.06860352 C65.75121015 152.06538239 64.74321762 151.06257653 63.73484802 150.06015015 C61.02170988 147.36029336 58.31489759 144.65418099 55.60966587 141.9464047 C53.34255048 139.67821293 51.07245054 137.41301955 48.80241084 135.14775509 C43.44552336 129.80192354 38.09393255 124.45083043 32.74560547 119.09643555 C27.24258179 113.5873645 21.73042469 108.0875544 16.21375299 102.59215313 C11.46075223 97.85680031 6.71361334 93.11562612 1.97105384 88.36981624 C-0.85429504 85.54266068 -3.68178625 82.71773861 -6.51500702 79.89846992 C-9.17792139 77.24818267 -11.8334035 74.59066165 -14.48350334 71.92756271 C-15.91237865 70.4952171 -17.34861419 69.0702255 -18.78511047 67.64552307 C-27.75814145 58.59935109 -33.68630733 49.73162582 -34.21875 36.62890625 C-33.80120713 26.85144414 -29.76581217 17.03931306 -22.76953125 10.1484375 C-16.05024858 4.6487105 -8.66861448 0.89991972 0 0 Z " fill="#EC469A" transform="translate(684.84375,650.80859375)"/>
<path d="M0 0 C9.10113522 6.46613988 14.41665694 14.66859709 16.67578125 25.64453125 C17.82706197 37.1195915 14.8504087 46.17117639 7.79419899 55.11647987 C4.00705055 59.63594062 -0.15455086 63.76952984 -4.32348633 67.93432617 C-5.31360115 68.93044028 -6.30331011 69.92695794 -7.29264832 70.92384338 C-9.95742747 73.60614068 -12.62851811 76.28206231 -15.30142808 78.95625472 C-16.97591934 80.63217546 -18.64897519 82.30951571 -20.32153893 83.98736 C-26.17001639 89.854286 -32.0235815 95.71607911 -37.88208008 101.57299805 C-43.32225482 107.01197062 -48.75116408 112.46201054 -54.17493325 117.91733855 C-58.85166752 122.62030193 -63.53616 127.31544259 -68.22666472 132.00467187 C-71.01942208 134.79692185 -73.80905751 137.59211709 -76.59089088 140.39525414 C-79.20781137 143.03167107 -81.8343419 145.65813463 -84.46824837 148.27757835 C-85.88042296 149.68669723 -87.28278973 151.10562441 -88.6847229 152.52493286 C-98.58291707 162.32678383 -107.88796936 168.10287442 -122.06835938 168.07836914 C-131.54613141 167.81762222 -139.70808206 164.21940751 -146.57421875 157.66796875 C-154.85507322 148.09323077 -157.36308415 138.09635945 -156.54492188 125.63378906 C-154.46961185 106.92845049 -132.43481048 91.57721008 -119.885216 79.00533986 C-118.29984664 77.41701052 -116.71505363 75.82810821 -115.13042259 74.23904228 C-110.15429267 69.24930931 -105.17621899 64.26152807 -100.19522887 59.27664667 C-94.47607993 53.55300206 -88.76356631 47.82284067 -83.05661613 42.08703333 C-78.61831222 37.627077 -74.17422516 33.17293716 -69.72574967 28.72312635 C-67.07947668 26.07581004 -64.43564297 23.42616701 -61.79784584 20.77040291 C-58.86094417 17.81387627 -55.91213072 14.86951031 -52.9621582 11.92602539 C-51.6706913 10.62073631 -51.6706913 10.62073631 -50.35313416 9.28907776 C-36.17525405 -4.79147539 -18.46226682 -10.76706989 0 0 Z " fill="#EC4799" transform="translate(355.32421875,657.35546875)"/>
<path d="M0 0 C6.1125191 4.41989733 11.34278981 9.57407217 16.6604948 14.90599632 C17.66792529 15.90907088 18.67577001 16.91172955 19.68399334 17.91400719 C22.40133375 20.61804427 25.11232511 23.32836032 27.82174945 26.0403266 C30.0913006 28.3109529 32.3638336 30.5785835 34.63630992 32.84628165 C39.99941787 38.19832541 45.35721878 43.55564114 50.71176434 48.91625023 C56.22215322 54.43268327 61.74166734 59.93986363 67.26570767 65.4426235 C72.02293493 70.18220198 76.77429938 74.92760282 81.52108508 79.67763865 C84.34980213 82.50816271 87.18066343 85.33645148 90.01725101 88.15909004 C92.68425638 90.81346745 95.3438284 93.47508001 97.99801922 96.14226913 C99.42928945 97.5770098 100.86792016 99.0043962 102.30681133 100.43149376 C111.28459709 109.48233659 117.21881227 118.3490105 117.75155926 131.45921898 C117.33401639 141.23668109 113.29862143 151.04881217 106.30234051 157.93968773 C100.35349603 162.80881174 93.16795314 167.11757959 85.37655926 167.89671898 C84.76812176 167.95988304 84.15968426 168.0230471 83.53280926 168.08812523 C71.90897105 168.74091324 63.00879034 164.1591106 54.37655926 156.89671898 C50.82753985 153.62570105 47.40876034 150.23285377 43.99496746 146.82152367 C42.98899174 145.82318825 41.9826223 144.82524944 40.97589397 143.82767296 C38.26665365 141.14019135 35.56384145 138.44633818 32.86290669 135.75051212 C31.17011904 134.06138814 29.47604537 132.37356454 27.7815485 130.68615532 C21.85594804 124.78497784 15.93602614 118.87816527 10.02084637 112.9665432 C4.52888954 107.47822323 -0.97607166 102.00318683 -6.48708886 96.53401256 C-11.23850701 91.81739524 -15.98015097 87.09109594 -20.71454841 82.35739446 C-23.53347514 79.53925673 -26.35614764 76.72515042 -29.1889677 73.92097282 C-31.85387288 71.28241926 -34.50631241 68.63191933 -37.1500864 65.97219849 C-38.57184359 64.54778988 -40.00587107 63.13566085 -41.44038105 61.7240963 C-51.19123256 51.86278664 -55.91228612 42.90979513 -55.94033527 29.1096096 C-55.76509487 19.54710883 -52.13672492 11.87317003 -45.62344074 4.89671898 C-33.36077307 -6.62556121 -14.47251371 -9.83543734 0 0 Z " fill="#EC469A" transform="translate(255.62344074249268,205.10328102111816)"/>
<path d="M0 0 C7.02464117 4.80351654 13.0938859 11.69652907 15.42578125 20.00390625 C17.13518417 30.59609932 16.95460925 41.23012759 10.75677299 50.34151173 C6.36130788 56.41714676 1.2467225 61.62034092 -4.05419922 66.90698242 C-5.04742163 67.90456089 -6.04022818 68.90255354 -7.03265381 69.90092468 C-9.70983306 72.59140582 -12.39328941 75.27553908 -15.07839727 77.95810485 C-17.3266557 80.20528803 -19.57191813 82.4554532 -21.81724846 84.70556146 C-27.11655482 90.01593149 -32.42113232 95.32099496 -37.72900391 100.62280273 C-43.19090563 106.07866029 -48.64355395 111.54364252 -54.09178245 117.01315135 C-58.78465185 121.72367029 -63.48334423 126.42832539 -68.18667138 131.12840253 C-70.98924988 133.92917414 -73.7895934 136.73208878 -76.58428574 139.54073143 C-79.21239802 142.18147293 -81.84774632 144.81477826 -84.48867035 147.44270515 C-85.9090974 148.8596623 -87.32217121 150.28397895 -88.73495483 151.70855713 C-97.73226515 160.6325324 -106.52290719 166.59167563 -119.51171875 167.15234375 C-131.20180816 166.77204381 -140.4870558 161.81647746 -148.38671875 153.46484375 C-155.01589956 145.35448358 -157.04481315 134.91144654 -156.13671875 124.71484375 C-153.30175197 111.2914468 -144.58219612 102.86080155 -135.15332031 93.42504883 C-134.16483711 92.42892505 -133.17675041 91.43240768 -132.18902588 90.43553162 C-129.52840153 87.75315127 -126.86140843 85.0771968 -124.19244099 82.40312028 C-122.52006809 80.7270834 -120.84899559 79.04976068 -119.1783371 77.372015 C-113.33551379 71.5047697 -107.48705649 65.64320229 -101.63378906 59.78637695 C-96.20000005 54.34895111 -90.77949606 48.89852222 -85.36485314 43.44203645 C-80.69494553 38.73732599 -76.0153544 34.04239218 -71.32836127 29.35470313 C-68.53816859 26.56372151 -65.75200713 23.76899722 -62.97577667 20.96412086 C-60.3634889 18.32547796 -57.73925288 15.69930775 -55.10579681 13.08179665 C-53.69570168 11.6743524 -52.29788441 10.25463966 -50.90063477 8.83444214 C-36.59205323 -5.31230443 -18.02177346 -10.83942133 0 0 Z " fill="#EC4799" transform="translate(808.13671875,205.28515625)"/>
<path d="M0 0 C7.70313869 6.21220862 13.03329844 14.71646584 14.12249947 24.64574814 C14.27606339 28.66872949 14.30302448 32.67374285 14.28344727 36.69873047 C14.29051745 38.23737409 14.29926705 39.77601076 14.30955505 41.31463623 C14.3319377 45.46772521 14.32913531 49.62043109 14.32023358 53.77355719 C14.31509995 57.25241333 14.32243556 60.73119897 14.32970566 64.21004784 C14.34666988 72.42346126 14.34317463 80.63668873 14.32641602 88.85009766 C14.30950283 97.29697238 14.32532593 105.74332998 14.3576389 114.19014823 C14.38441175 121.46694897 14.39158997 128.7435895 14.38312382 136.0204345 C14.37821638 140.35571849 14.38029075 144.69069168 14.40091133 149.02593613 C14.4193897 153.10562087 14.41316335 157.18456746 14.38871193 161.26421356 C14.38374202 162.75240596 14.38709329 164.2406558 14.39986038 165.72880173 C14.49976629 178.38540095 12.04117386 188.89325927 3.0703125 198.2734375 C-6.54411664 206.46350677 -16.1325172 207.9953266 -28.30566406 207.42919922 C-36.74481975 206.65140662 -44.28572243 201.50792776 -49.9375 195.4375 C-57.77454896 185.71955929 -58.84228262 175.89755339 -58.78344727 163.80126953 C-58.79051745 162.26262591 -58.79926705 160.72398924 -58.80955505 159.18536377 C-58.8319377 155.03227479 -58.82913531 150.87956891 -58.82023358 146.72644281 C-58.81509995 143.24758667 -58.82243556 139.76880103 -58.82970566 136.28995216 C-58.84666988 128.07653874 -58.84317463 119.86331127 -58.82641602 111.64990234 C-58.80950283 103.20302762 -58.82532593 94.75667002 -58.8576389 86.30985177 C-58.88441175 79.03305103 -58.89158997 71.7564105 -58.88312382 64.4795655 C-58.87821638 60.14428151 -58.88029075 55.80930832 -58.90091133 51.47406387 C-58.9193897 47.39437913 -58.91316335 43.31543254 -58.88871193 39.23578644 C-58.88374202 37.74759404 -58.88709329 36.2593442 -58.89986038 34.77119827 C-58.99976629 22.11459905 -56.54117386 11.60674073 -47.5703125 2.2265625 C-33.66217106 -9.62111354 -14.87282155 -10.23205392 0 0 Z " fill="#EC4799" transform="translate(534.25,731.75)"/>
<path d="M0 0 C1.53864362 -0.00707018 3.07728029 -0.01581979 4.61590576 -0.02610779 C8.76899474 -0.04849043 12.92170062 -0.04568804 17.07482672 -0.03678632 C20.55368286 -0.03165269 24.0324685 -0.0389883 27.51131737 -0.04625839 C35.72473079 -0.06322262 43.93795826 -0.05972737 52.15136719 -0.04296875 C60.59824191 -0.02605556 69.04459952 -0.04187867 77.49141777 -0.07419163 C84.7682185 -0.10096449 92.04485903 -0.1081427 99.32170403 -0.09967655 C103.65698802 -0.09476911 107.99196122 -0.09684348 112.32720566 -0.11746407 C116.4068904 -0.13594244 120.48583699 -0.12971608 124.56548309 -0.10526466 C126.05367549 -0.10029475 127.54192533 -0.10364603 129.03007126 -0.11641312 C141.68667048 -0.21631902 152.1945288 2.24227341 161.57470703 11.21313477 C169.7647763 20.82756391 171.29659613 30.41596446 170.73046875 42.58911133 C169.95267615 51.02826702 164.80919729 58.5691697 158.73876953 64.22094727 C149.02082883 72.05799622 139.19882292 73.12572989 127.10253906 73.06689453 C125.56389544 73.07396471 124.02525877 73.08271432 122.4866333 73.09300232 C118.33354432 73.11538496 114.18083844 73.11258258 110.02771235 73.10368085 C106.5488562 73.09854722 103.07007056 73.10588283 99.59122169 73.11315292 C91.37780828 73.13011715 83.1645808 73.1266219 74.95117188 73.10986328 C66.50429715 73.09295009 58.05793955 73.1087732 49.6111213 73.14108616 C42.33432056 73.16785902 35.05768003 73.17503723 27.78083503 73.16657108 C23.44555104 73.16166364 19.11057785 73.16373801 14.7753334 73.1843586 C10.69564866 73.20283697 6.61670207 73.19661062 2.53705597 73.17215919 C1.04886357 73.16718928 -0.43938627 73.17054056 -1.9275322 73.18330765 C-14.58413142 73.28321355 -25.09198974 70.82462112 -34.47216797 61.85375977 C-42.66223724 52.23933062 -44.19405706 42.65093007 -43.62792969 30.4777832 C-42.85013709 22.03862751 -37.70665823 14.49772483 -31.63623047 8.84594727 C-21.91828976 1.00889831 -12.09628386 -0.05883536 0 0 Z " fill="#EC4799" transform="translate(768.44873046875,475.466552734375)"/>
<path d="M0 0 C1.53864362 -0.00707018 3.07728029 -0.01581979 4.61590576 -0.02610779 C8.76899474 -0.04849043 12.92170062 -0.04568804 17.07482672 -0.03678632 C20.55368286 -0.03165269 24.0324685 -0.0389883 27.51131737 -0.04625839 C35.72473079 -0.06322262 43.93795826 -0.05972737 52.15136719 -0.04296875 C60.59824191 -0.02605556 69.04459952 -0.04187867 77.49141777 -0.07419163 C84.7682185 -0.10096449 92.04485903 -0.1081427 99.32170403 -0.09967655 C103.65698802 -0.09476911 107.99196122 -0.09684348 112.32720566 -0.11746407 C116.4068904 -0.13594244 120.48583699 -0.12971608 124.56548309 -0.10526466 C126.05367549 -0.10029475 127.54192533 -0.10364603 129.03007126 -0.11641312 C141.68667048 -0.21631902 152.1945288 2.24227341 161.57470703 11.21313477 C169.7647763 20.82756391 171.29659613 30.41596446 170.73046875 42.58911133 C169.95267615 51.02826702 164.80919729 58.5691697 158.73876953 64.22094727 C149.02082883 72.05799622 139.19882292 73.12572989 127.10253906 73.06689453 C125.56389544 73.07396471 124.02525877 73.08271432 122.4866333 73.09300232 C118.33354432 73.11538496 114.18083844 73.11258258 110.02771235 73.10368085 C106.5488562 73.09854722 103.07007056 73.10588283 99.59122169 73.11315292 C91.37780828 73.13011715 83.1645808 73.1266219 74.95117188 73.10986328 C66.50429715 73.09295009 58.05793955 73.1087732 49.6111213 73.14108616 C42.33432056 73.16785902 35.05768003 73.17503723 27.78083503 73.16657108 C23.44555104 73.16166364 19.11057785 73.16373801 14.7753334 73.1843586 C10.69564866 73.20283697 6.61670207 73.19661062 2.53705597 73.17215919 C1.04886357 73.16718928 -0.43938627 73.17054056 -1.9275322 73.18330765 C-14.58413142 73.28321355 -25.09198974 70.82462112 -34.47216797 61.85375977 C-42.66223724 52.23933062 -44.19405706 42.65093007 -43.62792969 30.4777832 C-42.85013709 22.03862751 -37.70665823 14.49772483 -31.63623047 8.84594727 C-21.91828976 1.00889831 -12.09628386 -0.05883536 0 0 Z " fill="#EC4799" transform="translate(128.44873046875,475.466552734375)"/>
<path d="M0 0 C7.70313869 6.21220862 13.03329844 14.71646584 14.12249947 24.64574814 C14.27606339 28.66872949 14.30302448 32.67374285 14.28344727 36.69873047 C14.29051745 38.23737409 14.29926705 39.77601076 14.30955505 41.31463623 C14.3319377 45.46772521 14.32913531 49.62043109 14.32023358 53.77355719 C14.31509995 57.25241333 14.32243556 60.73119897 14.32970566 64.21004784 C14.34666988 72.42346126 14.34317463 80.63668873 14.32641602 88.85009766 C14.30950283 97.29697238 14.32532593 105.74332998 14.3576389 114.19014823 C14.38441175 121.46694897 14.39158997 128.7435895 14.38312382 136.0204345 C14.37821638 140.35571849 14.38029075 144.69069168 14.40091133 149.02593613 C14.4193897 153.10562087 14.41316335 157.18456746 14.38871193 161.26421356 C14.38374202 162.75240596 14.38709329 164.2406558 14.39986038 165.72880173 C14.49976629 178.38540095 12.04117386 188.89325927 3.0703125 198.2734375 C-6.54411664 206.46350677 -16.1325172 207.9953266 -28.30566406 207.42919922 C-36.74481975 206.65140662 -44.28572243 201.50792776 -49.9375 195.4375 C-57.77454896 185.71955929 -58.84228262 175.89755339 -58.78344727 163.80126953 C-58.79051745 162.26262591 -58.79926705 160.72398924 -58.80955505 159.18536377 C-58.8319377 155.03227479 -58.82913531 150.87956891 -58.82023358 146.72644281 C-58.81509995 143.24758667 -58.82243556 139.76880103 -58.82970566 136.28995216 C-58.84666988 128.07653874 -58.84317463 119.86331127 -58.82641602 111.64990234 C-58.80950283 103.20302762 -58.82532593 94.75667002 -58.8576389 86.30985177 C-58.88441175 79.03305103 -58.89158997 71.7564105 -58.88312382 64.4795655 C-58.87821638 60.14428151 -58.88029075 55.80930832 -58.90091133 51.47406387 C-58.9193897 47.39437913 -58.91316335 43.31543254 -58.88871193 39.23578644 C-58.88374202 37.74759404 -58.88709329 36.2593442 -58.89986038 34.77119827 C-58.99976629 22.11459905 -56.54117386 11.60674073 -47.5703125 2.2265625 C-33.66217106 -9.62111354 -14.87282155 -10.23205392 0 0 Z " fill="#EC4799" transform="translate(534.25,91.75)"/>
</svg>
